<svg xmlns="http://www.w3.org/2000/svg"><symbol id="mecha-stilts" viewBox="0 0 256 256"><path d="M130.1 147.4h9.3v22.97h-9.3zm-59.8 0H126v22.97H70.3zm53.6-65.6c-26.5 1.7-48.6 20.9-55 45.9H91zm6.2-.2v46.1h57.1a61.5 61.5 0 0 0-57.1-46.1zm-4.2 46.2V86l-29.8 41.8h29.8zm17.6 19.6h42.2v22.97h-42.2z"/><path d="M128 2L18.9 65v126L128 254l109.1-63V65zm89.2 145.4h-27.3v25a2 2 0 0 1-2.1 2.1H68.2a2 2 0 0 1-2.1-2.1v-25H38.8a2.1 2.1 0 0 1 0-4.1h15.5v-13.4a2 2 0 0 1 2.1-2.1h8.1a65.6 65.6 0 0 1 63.3-50.3c.2-.2.4-.2.8 0 30.6.2 56.1 21.7 62.9 50.3h8.1a2 2 0 0 1 2.1 2.1v13.5h15.5a2.1 2.1 0 1 1 0 4.1z"/><path d="M58.5 131.9h139.1v11.38H58.5z"/></symbol><symbol id="super-domes" viewBox="0 0 256 256"><path d="M121.4 157.4h13.2v13.04h-13.2zm42.2 0h13.2v13.04h-13.2zm-24.8 0h20.7v13.04h-20.7zm-42.3 0h20.7v13.04H96.5zm-29.8-4.2h122.6v-36.6H66.7zm60.3-14h50.5a2.1 2.1 0 0 1 0 4.1H127a2.1 2.1 0 1 1 0-4.1zm1-68.1c-24.2 0-44.5 14.7-45.5 41.4h91.1c-1.1-26.7-21.4-41.4-45.6-41.4z"/><path d="M128 2L18.9 65v126L128 254l109.1-63V65zm65.4 153.3a2 2 0 0 1-2.1 2.1H181v13h10.3a2.1 2.1 0 1 1 0 4.1H64.7a2.1 2.1 0 0 1 0-4.1H75v-13H64.7a2 2 0 0 1-2.1-2.1v-40.8a2 2 0 0 1 2.1-2.1h13.6c1-29.4 23-45.5 49.7-45.5s48.6 16.1 49.7 45.5h13.7a2 2 0 0 1 2.1 2.1z"/><path d="M79.2 157.4h13.2v13.04H79.2z"/></symbol><symbol id="space-bubbles" viewBox="0 0 256 256"><path d="M92 170.4h28.2l-8.5-10.3L92 170.4zm10.8-20.9H89.1L70.9 171l2.9 4.2 35-18.4-6-7.3z"/><path d="M133 2L23.9 65v126L133 254l109.1-63V65zm66.2 170.3l-4.8 6.8a2.2 2.2 0 0 1-2.7.6l-9.9-5.2H84l-10 5.2a2.3 2.3 0 0 1-2.7-.6l-4.8-6.8a2.2 2.2 0 0 1 .2-2.5L84 149.5h-8.5a2 2 0 0 1-2.1-2.1v-14.9a2 2 0 0 1 2.1-2.1h12a57.8 57.8 0 0 1-2.3-15.7 48.9 48.9 0 0 1 97.9 0 50.8 50.8 0 0 1-2.3 15.7h12a2 2 0 0 1 2.1 2.1v14.9a2 2 0 0 1-2.1 2.1h-10.6l17 20.3a2.2 2.2 0 0 1 0 2.5z"/><path d="M108.2 149.5l17.3 20.9h14.9l17.4-20.9h-49.6zm-30.7-14.9h113.2v10.76H77.5zm99-4.1a50 50 0 0 0 2.5-15.7 44.8 44.8 0 0 0-89.6 0c0 5.4.4 11 2.5 15.7zm-30.7 39.9H174l-19.7-10.3-8.5 10.3zm17.4-20.9l-6.2 7.3 35.2 18.4 2.9-4-18.2-21.7h-13.7z"/></symbol></svg>